<svg preserveAspectRatio="none" width="100%" height="100%" overflow="visible" style="display: block;" viewBox="0 0 10.3667 10.3667" fill="none" xmlns="http://www.w3.org/2000/svg">
<g id="Group 47296">
<path id="Arrow 10" d="M-2.64734e-07 9.8667C-1.61571e-07 10.1428 0.223857 10.3667 0.5 10.3667L5 10.3667C5.27614 10.3667 5.5 10.1428 5.5 9.8667C5.5 9.59056 5.27614 9.3667 5 9.3667L1 9.3667L1 5.3667C1 5.09056 0.776143 4.8667 0.5 4.8667C0.223858 4.8667 3.69672e-07 5.09056 5.14982e-07 5.3667L-2.64734e-07 9.8667ZM10.0131 0.353553L9.6596 1.30967e-10L0.146447 9.51315L0.5 9.8667L0.853553 10.2203L10.3667 0.707107L10.0131 0.353553Z" fill="var(--stroke-0, #777165)"/>
</g>
</svg>
