<svg preserveAspectRatio="none" width="100%" height="100%" overflow="visible" style="display: block;" viewBox="0 0 32 32" fill="none" xmlns="http://www.w3.org/2000/svg">
<g id="certificate-01-svgrepo-com 1">
<path id="Vector" d="M8.66667 26.6667H6.66667C5.19391 26.6667 4 25.4728 4 24V5.33333C4 3.86057 5.19391 2.66667 6.66667 2.66667H25.3333C26.8061 2.66667 28 3.86057 28 5.33333V24C28 25.4728 26.8061 26.6667 25.3333 26.6667H23.3333M16 25.3333C18.2092 25.3333 20 23.5425 20 21.3333C20 19.1241 18.2092 17.3333 16 17.3333C13.7908 17.3333 12 19.1241 12 21.3333C12 23.5425 13.7908 25.3333 16 25.3333ZM16 25.3333L16.0285 25.3331L11.7716 29.5901L8.00032 25.8188L12.0262 21.7929M16 25.3333L20.2571 29.5901L24.0283 25.8188L20.0024 21.7929M12 8H20M9.33333 12.6667H22.6667" stroke="var(--stroke-0, #777165)" stroke-linecap="round" stroke-linejoin="round"/>
</g>
</svg>
