<svg preserveAspectRatio="none" width="100%" height="100%" overflow="visible" style="display: block;" viewBox="0 0 20 20" fill="none" xmlns="http://www.w3.org/2000/svg">
<g id="calendar-add-svgrepo-com 1">
<path id="Vector" d="M1.66667 10C1.66667 6.8573 1.66667 5.28596 2.64298 4.30964C3.61929 3.33333 5.19063 3.33333 8.33333 3.33333H11.6667C14.8093 3.33333 16.3807 3.33333 17.357 4.30964C18.3333 5.28596 18.3333 6.8573 18.3333 10V11.6667C18.3333 14.8093 18.3333 16.3808 17.357 17.357C16.3807 18.3333 14.8093 18.3333 11.6667 18.3333H8.33333C5.19063 18.3333 3.61929 18.3333 2.64298 17.357C1.66667 16.3808 1.66667 14.8093 1.66667 11.6667V10Z" stroke="var(--stroke-0, #777165)"/>
<path id="Vector_2" d="M15 13.3333H13.3333M13.3333 13.3333H11.6667M13.3333 13.3333V11.6667M13.3333 13.3333V15" stroke="var(--stroke-0, #777165)" stroke-linecap="round"/>
<path id="Vector_3" opacity="0.5" d="M5.83333 3.33333V2.08333" stroke="var(--stroke-0, #777165)" stroke-linecap="round"/>
<path id="Vector_4" opacity="0.5" d="M14.1667 3.33333V2.08333" stroke="var(--stroke-0, #777165)" stroke-linecap="round"/>
<path id="Vector_5" d="M1.66667 7.5H18.3333" stroke="var(--stroke-0, #777165)" stroke-linecap="round"/>
</g>
</svg>
