<svg preserveAspectRatio="none" width="100%" height="100%" overflow="visible" style="display: block;" viewBox="0 0 27 27" fill="none" xmlns="http://www.w3.org/2000/svg">
<g id="Group 47279" filter="url(#filter0_d_0_7)">
<circle id="Ellipse 469" cx="13.5" cy="9.5" r="9.5" fill="var(--fill-0, white)"/>
<path id="Arrow 6" d="M16 12.5C16.2761 12.5 16.5 12.2761 16.5 12L16.5 7.5C16.5 7.22386 16.2761 7 16 7C15.7239 7 15.5 7.22386 15.5 7.5L15.5 11.5L11.5 11.5C11.2239 11.5 11 11.7239 11 12C11 12.2761 11.2239 12.5 11.5 12.5L16 12.5ZM11 7L10.6464 7.35355L15.6464 12.3536L16 12L16.3536 11.6464L11.3536 6.64645L11 7Z" fill="var(--stroke-0, black)"/>
</g>
<defs>
<filter id="filter0_d_0_7" x="0" y="0" width="27" height="27" filterUnits="userSpaceOnUse" color-interpolation-filters="sRGB">
<feFlood flood-opacity="0" result="BackgroundImageFix"/>
<feColorMatrix in="SourceAlpha" type="matrix" values="0 0 0 0 0 0 0 0 0 0 0 0 0 0 0 0 0 0 127 0" result="hardAlpha"/>
<feOffset dy="4"/>
<feGaussianBlur stdDeviation="2"/>
<feComposite in2="hardAlpha" operator="out"/>
<feColorMatrix type="matrix" values="0 0 0 0 0 0 0 0 0 0 0 0 0 0 0 0 0 0 0.25 0"/>
<feBlend mode="normal" in2="BackgroundImageFix" result="effect1_dropShadow_0_7"/>
<feBlend mode="normal" in="SourceGraphic" in2="effect1_dropShadow_0_7" result="shape"/>
</filter>
</defs>
</svg>
