<svg preserveAspectRatio="none" width="100%" height="100%" overflow="visible" style="display: block;" viewBox="0 0 35 35" fill="none" xmlns="http://www.w3.org/2000/svg">
<g id="document-add-svgrepo-com 1">
<path id="Vector" d="M19.1027 24.557L19.6875 24.362L21.4953 23.7595C22.0599 23.5713 22.3421 23.4771 22.6078 23.3505C22.9211 23.2012 23.2173 23.0182 23.491 22.8048C23.723 22.6239 23.9334 22.4134 24.3543 21.9925L30.5677 15.7792L31.2435 15.1032C32.3633 13.9835 32.3633 12.168 31.2435 11.0482C30.1238 9.92839 28.3081 9.92839 27.1884 11.0482L26.5125 11.724L20.2991 17.9374C19.8783 18.3582 19.6678 18.5687 19.4868 18.8007C19.2735 19.0744 19.0905 19.3706 18.9411 19.6839C18.8145 19.9496 18.7203 20.2317 18.5322 20.7964L17.9296 22.6042L17.7346 23.189L17.5397 23.7739C17.4471 24.0517 17.5194 24.3581 17.7265 24.5652C17.9336 24.7723 18.24 24.8446 18.5178 24.752L19.1027 24.557ZM26.5125 11.724C26.5125 11.724 26.5971 13.1602 27.8642 14.4274C29.1315 15.6946 30.5677 15.7792 30.5677 15.7792M17.7346 23.189L19.1027 24.557" stroke="var(--stroke-0, #777165)"/>
<path id="Vector_2" d="M11.6667 18.9583H15.3125" stroke="var(--stroke-0, #777165)" stroke-linecap="round"/>
<path id="Vector_3" d="M11.6667 13.125H21.1458" stroke="var(--stroke-0, #777165)" stroke-linecap="round"/>
<path id="Vector_4" d="M11.6667 24.7917H13.8542" stroke="var(--stroke-0, #777165)" stroke-linecap="round"/>
<path id="Vector_5" d="M4.375 20.4167V14.5833C4.375 9.08361 4.375 6.33376 6.08354 4.62521C7.79209 2.91667 10.5419 2.91667 16.0417 2.91667H18.9583C24.458 2.91667 27.208 2.91667 28.9164 4.62521M30.625 20.4167C30.625 25.9163 30.625 28.6663 28.9164 30.3747M30.6123 23.3333C30.56 26.9494 30.2918 28.9994 28.9164 30.3747C27.208 32.0833 24.458 32.0833 18.9583 32.0833H16.0417C10.5419 32.0833 7.79209 32.0833 6.08354 30.3747" stroke="var(--stroke-0, #777165)" stroke-linecap="round"/>
</g>
</svg>
