<svg preserveAspectRatio="none" width="100%" height="100%" overflow="visible" style="display: block;" viewBox="0 0 20 20" fill="none" xmlns="http://www.w3.org/2000/svg">
<g id="photo-camera-svgrepo-com 1">
<path id="Vector" d="M2.5 7.5C2.5 6.57953 3.24619 5.83333 4.16667 5.83333H5.41667C5.94126 5.83333 6.43524 5.58634 6.75 5.16667L7.625 4C7.93976 3.58033 8.43375 3.33333 8.95833 3.33333H11.0417C11.5662 3.33333 12.0603 3.58033 12.375 4L13.25 5.16667C13.5647 5.58634 14.0587 5.83333 14.5833 5.83333H15.8333C16.7538 5.83333 17.5 6.57953 17.5 7.5V15C17.5 15.9205 16.7538 16.6667 15.8333 16.6667H4.16667C3.24619 16.6667 2.5 15.9205 2.5 15V7.5Z" stroke="var(--stroke-0, #777165)" stroke-linecap="round" stroke-linejoin="round"/>
<path id="Vector_2" d="M10 14.1667C11.8409 14.1667 13.3333 12.6743 13.3333 10.8333C13.3333 8.99238 11.8409 7.5 10 7.5C8.15905 7.5 6.66667 8.99238 6.66667 10.8333C6.66667 12.6743 8.15905 14.1667 10 14.1667Z" stroke="var(--stroke-0, #777165)" stroke-linecap="round" stroke-linejoin="round"/>
</g>
</svg>
