<svg preserveAspectRatio="none" width="100%" height="100%" overflow="visible" style="display: block;" viewBox="0 0 20 20" fill="none" xmlns="http://www.w3.org/2000/svg">
<g id="star-svgrepo-com (1) 1">
<path id="Vector" d="M7.62763 4.50698C8.68317 2.61344 9.21092 1.66667 10 1.66667C10.7891 1.66667 11.3168 2.61343 12.3723 4.50698L12.6454 4.99686C12.9454 5.53494 13.0953 5.80399 13.3293 5.98151C13.5631 6.15903 13.8543 6.22492 14.4368 6.35671L14.9671 6.47669C17.0168 6.94047 18.0417 7.17235 18.2855 7.95644C18.5293 8.7405 17.8307 9.55758 16.4333 11.1916L16.0718 11.6143C15.6747 12.0787 15.4761 12.3108 15.3867 12.5981C15.2975 12.8853 15.3275 13.1951 15.3875 13.8147L15.4422 14.3787C15.6534 16.5588 15.7591 17.6489 15.1207 18.1335C14.4823 18.6181 13.5228 18.1763 11.6036 17.2927L11.1071 17.064C10.5617 16.8129 10.2891 16.6873 10 16.6873C9.71092 16.6873 9.43825 16.8129 8.89292 17.064L8.39642 17.2927C6.47723 18.1763 5.51765 18.6181 4.87929 18.1335C4.24093 17.6489 4.34657 16.5588 4.55783 14.3787L4.61248 13.8147C4.67253 13.1951 4.70254 12.8853 4.61322 12.5981C4.5239 12.3108 4.32536 12.0787 3.92827 11.6143L3.56675 11.1916C2.16938 9.55758 1.47068 8.7405 1.71452 7.95644C1.95835 7.17235 2.98322 6.94047 5.03295 6.47669L5.56324 6.35671C6.14571 6.22492 6.43694 6.15903 6.67078 5.98151C6.90463 5.80399 7.05461 5.53495 7.35456 4.99686L7.62763 4.50698Z" stroke="var(--stroke-0, #777165)"/>
</g>
</svg>
