<svg preserveAspectRatio="none" width="100%" height="100%" overflow="visible" style="display: block;" viewBox="0 0 20 20" fill="none" xmlns="http://www.w3.org/2000/svg">
<g id="case-minimalistic-svgrepo-com 1">
<path id="Vector" d="M11.6667 5H8.33333C7.20344 5 6.27666 5 5.50763 5.04538C4.13766 5.1262 3.26828 5.35102 2.64298 5.97631C1.66667 6.95262 1.66667 8.524 1.66667 11.6667C1.66667 14.8093 1.66667 16.3807 2.64298 17.357C3.61929 18.3333 5.19063 18.3333 8.33333 18.3333H11.6667C14.8093 18.3333 16.3807 18.3333 17.357 17.357C18.3333 16.3807 18.3333 14.8093 18.3333 11.6667C18.3333 8.524 18.3333 6.95262 17.357 5.97631C16.7317 5.35102 15.8623 5.1262 14.4924 5.04538C13.7233 5 12.7966 5 11.6667 5Z" stroke="var(--stroke-0, #777165)"/>
<path id="Vector_2" d="M5.50782 5.04538C6.19402 5.02798 6.79938 4.54576 7.03287 3.90027C7.04005 3.88041 7.04742 3.85833 7.06214 3.81414L7.08353 3.75C7.11868 3.64453 7.13626 3.59178 7.15507 3.545C7.39522 2.9476 7.95801 2.54198 8.60067 2.50305C8.651 2.5 8.70658 2.5 8.81783 2.5H11.1826C11.2937 2.5 11.3493 2.5 11.3997 2.50305C12.0423 2.54198 12.6052 2.9476 12.8453 3.545C12.8641 3.59178 12.8817 3.64453 12.9168 3.75L12.9382 3.81414C12.9529 3.85827 12.9603 3.88043 12.9675 3.90027C13.201 4.54576 13.8063 5.02798 14.4926 5.04538" stroke="var(--stroke-0, #777165)"/>
<path id="Vector_3" d="M18.0515 7.26644C15.5432 8.89675 14.2892 9.71192 12.9671 10.1227C11.0347 10.7231 8.9655 10.7231 7.03302 10.1227C5.71094 9.71192 4.45685 8.89675 1.94865 7.26644" stroke="var(--stroke-0, #777165)" stroke-linecap="round"/>
<path id="Vector_4" d="M6.66667 9.16667V10.8333" stroke="var(--stroke-0, #777165)" stroke-linecap="round"/>
<path id="Vector_5" d="M13.3333 9.16667V10.8333" stroke="var(--stroke-0, #777165)" stroke-linecap="round"/>
</g>
</svg>
