<svg xmlns="http://www.w3.org/2000/svg" viewBox="0 0 512 512">
  <!-- Rounded square background -->
  <rect width="512" height="512" rx="110" ry="110" fill="#1e1e1e"/>
  <!-- TH monogram, scaled and centered from logo.svg (original 32x32 → centered in 512x512) -->
  <g transform="translate(80, 120) scale(11)">
    <path d="M4.99169 26.9138C5.81836 26.845 6.46044 26.7191 6.91969 26.5351C7.37866 26.3517 7.72888 26.0652 7.96977 25.6744C8.21066 25.2844 8.35969 24.7739 8.41718 24.1422C8.47407 23.5114 8.5031 22.7135 8.5031 21.7496V5.77481C7.28681 5.77481 6.2711 5.82133 5.45629 5.91259C4.64147 6.00444 3.93599 6.2397 3.33895 6.61837C2.74162 6.99704 2.22014 7.57718 1.77273 8.35704C1.32503 9.13748 0.882657 10.2047 0.447102 11.5588L-0.000305556 11.421L0.481472 4.67318C1.44532 4.71941 2.39732 4.75378 3.33895 4.7763C4.27999 4.79941 5.23258 4.81096 6.19673 4.81096H14.2874C15.205 4.81096 16.1117 4.79941 17.0071 4.7763C17.9022 4.75378 18.8086 4.71941 19.7271 4.67318L20.2089 11.421L19.7612 11.5588C19.325 10.2047 18.8833 9.13748 18.4358 8.35704C17.9881 7.57689 17.4661 6.99704 16.8693 6.61837C16.2726 6.2397 15.5553 6.00444 14.7176 5.91259C13.8794 5.82133 12.8415 5.77481 11.6021 5.77481V21.7496C11.6021 22.7138 11.6305 23.5114 11.688 24.1422C11.7449 24.7739 11.8948 25.2844 12.1357 25.6744C12.3766 26.0649 12.7381 26.3517 13.2198 26.5351C13.7016 26.7191 14.3671 26.845 15.2166 26.9138V27.3271C14.3443 27.2809 13.472 27.2462 12.6003 27.2237C11.7274 27.2006 10.8557 27.1893 9.98399 27.1893C9.11229 27.1893 8.29688 27.2006 7.47081 27.2237C6.64414 27.2462 5.81836 27.2809 4.99169 27.3271V26.9138Z" fill="white"/>
    <path d="M14.4264 17.4652H25.2865V21.7496C25.2865 22.7138 25.2575 23.5114 25.2006 24.1422C25.1431 24.7739 24.9941 25.2844 24.7529 25.6744C24.512 26.0649 24.1618 26.3517 23.7031 26.5351C23.2436 26.7191 22.6012 26.845 21.7751 26.9138V27.3271C22.6012 27.2809 23.4276 27.2462 24.2536 27.2237C25.0803 27.2006 25.9179 27.1893 26.7674 27.1893C27.6169 27.1893 28.5111 27.2006 29.3837 27.2237C30.2554 27.2462 31.1277 27.2809 32 27.3271V26.9138C31.1505 26.845 30.485 26.7191 30.0033 26.5351C29.5215 26.3517 29.16 26.0652 28.9191 25.6744C28.6776 25.2844 28.5283 24.7739 28.4714 24.1422C28.4139 23.5114 28.3855 22.7135 28.3855 21.7496V10.2507C28.3855 9.28652 28.4139 8.48919 28.4714 7.85778C28.5283 7.22696 28.6723 6.71615 28.9019 6.32593C29.1307 5.9357 29.4753 5.64919 29.9348 5.46519C30.3935 5.28178 31.0243 5.15526 31.8284 5.08652V4.67348C31.0933 4.7197 30.3476 4.75407 29.5902 4.77659C28.8329 4.7997 28.0753 4.81126 27.3179 4.81126C26.3541 4.81126 25.4184 4.7997 24.512 4.77659C23.605 4.75407 22.6702 4.7197 21.7064 4.67348V5.08652C22.5324 5.15526 23.1867 5.28207 23.6684 5.46519C24.1502 5.64919 24.5117 5.936 24.7526 6.32593C24.9941 6.71644 25.1431 7.22696 25.2003 7.85778C25.2572 8.48948 25.2862 9.28681 25.2862 10.2507V16.3636H14.4261" fill="white"/>
  </g>
</svg>
