<svg preserveAspectRatio="none" width="100%" height="100%" overflow="visible" style="display: block;" viewBox="0 0 25 25" fill="none" xmlns="http://www.w3.org/2000/svg">
<g id="instagram-svgrepo-com (1) 1">
<path id="Vector" d="M9.375 22.9167H15.625C20.8333 22.9167 22.9167 20.8333 22.9167 15.625V9.375C22.9167 4.16667 20.8333 2.08333 15.625 2.08333H9.375C4.16667 2.08333 2.08333 4.16667 2.08333 9.375V15.625C2.08333 20.8333 4.16667 22.9167 9.375 22.9167Z" stroke="var(--stroke-0, #777165)" stroke-linecap="round" stroke-linejoin="round"/>
<path id="Vector_2" d="M12.5 16.1458C14.5135 16.1458 16.1458 14.5135 16.1458 12.5C16.1458 10.4865 14.5135 8.85417 12.5 8.85417C10.4865 8.85417 8.85417 10.4865 8.85417 12.5C8.85417 14.5135 10.4865 16.1458 12.5 16.1458Z" stroke="var(--stroke-0, #777165)" stroke-linecap="round" stroke-linejoin="round"/>
<path id="Vector_3" d="M18.3709 7.29167H18.3821" stroke="var(--stroke-0, #777165)" stroke-linecap="round" stroke-linejoin="round"/>
</g>
</svg>
