<svg preserveAspectRatio="none" width="100%" height="100%" overflow="visible" style="display: block;" viewBox="0 0 30 30" fill="none" xmlns="http://www.w3.org/2000/svg">
<g id="tiktok-outline-svgrepo-com 1">
<path id="Vector" d="M11.4634 11.6885C7.1949 11.7814 3.74993 15.2872 3.74993 19.5884C3.74993 21.6664 4.55608 23.5587 5.87258 24.975C7.31668 26.5247 9.37554 27.5 11.6548 27.5C16.0103 27.5 19.5596 23.9534 19.5596 19.5884V10.8526C21.2415 12.06 23.3062 12.7739 25.5332 12.7739V8.47866C25.0982 8.47866 24.6808 8.43218 24.2806 8.3451C22.993 8.07235 21.8622 7.37579 21.0271 6.418C20.1107 5.36743 19.5599 3.99756 19.5599 2.5H18.4116M21.0271 6.418C21.0049 6.40345 20.9826 6.38876 20.9605 6.37393M8.73188 21.6896C8.30271 21.0976 8.04753 20.3721 8.04753 19.5826C8.04753 17.5917 9.66561 15.9722 11.6549 15.9722C12.0261 15.9722 12.3856 16.036 12.722 16.1405V11.7524C12.374 11.7059 12.0203 11.6769 11.6549 11.6769C11.5911 11.6769 11.0772 11.711 11.0134 11.711M18.4055 2.5H15.2621L15.2564 19.7219C15.1868 21.649 13.5976 23.1989 11.6548 23.1989C10.4485 23.1989 9.38714 22.601 8.72599 21.6955" stroke="var(--stroke-0, #777165)" stroke-linejoin="round"/>
</g>
</svg>
