<svg preserveAspectRatio="none" width="100%" height="100%" overflow="visible" style="display: block;" viewBox="0 0 30 30" fill="none" xmlns="http://www.w3.org/2000/svg">
<g id="youtube-svgrepo-com 1">
<path id="Vector" d="M26.9452 8.99625C26.8029 8.46699 26.5239 7.98443 26.1364 7.59688C25.7488 7.20933 25.2663 6.9304 24.737 6.788C23.2904 6.2295 9.27912 5.95588 5.21463 6.804C4.68532 6.94642 4.20273 7.22539 3.81515 7.61298C3.42758 8.00058 3.14864 8.48319 3.00625 9.0125C2.35338 11.8769 2.30381 18.0696 3.02225 20.9979C3.16467 21.5272 3.44363 22.0098 3.8312 22.3973C4.21877 22.7849 4.70135 23.0638 5.23063 23.2063C8.09494 23.8655 21.7126 23.9583 24.753 23.2063C25.2823 23.0638 25.7648 22.7849 26.1524 22.3973C26.5399 22.0098 26.8189 21.5272 26.9612 20.9979C27.6574 17.8773 27.7069 12.0688 26.9452 8.99625Z" stroke="var(--stroke-0, #777165)" stroke-linecap="round" stroke-linejoin="round"/>
<path id="Vector_2" d="M19.1043 14.997L12.5755 11.2525V18.7414L19.1043 14.997Z" stroke="var(--stroke-0, #777165)" stroke-linecap="round" stroke-linejoin="round"/>
</g>
</svg>
