<svg preserveAspectRatio="none" width="100%" height="100%" overflow="visible" style="display: block;" viewBox="0 0 93 89.0444" fill="none" xmlns="http://www.w3.org/2000/svg">
<g id="Ellipse 478">
<mask id="path-1-inside-1_0_4" fill="white">
<path d="M93 42.5444C93 50.9201 90.7378 59.1403 86.4522 66.3367C82.1667 73.533 76.017 79.4382 68.6529 83.4284C61.2887 87.4186 52.9836 89.3458 44.6147 89.0062C36.2459 88.6666 28.1242 86.0729 21.1075 81.4992C14.0909 76.9254 8.43988 70.5414 4.75149 63.0215C1.0631 55.5016 -0.525715 47.1251 0.152889 38.777C0.831493 30.4288 3.75232 22.4189 8.60681 15.5934C13.4613 8.76801 20.0692 3.38048 27.7324 4.21017e-08L28.6394 2.05599C21.3465 5.2731 15.0579 10.4003 10.438 16.8959C5.81813 23.3915 3.03845 31.0143 2.39264 38.959C1.74683 46.9038 3.25887 54.8755 6.76902 62.0319C10.2792 69.1884 15.6571 75.2639 22.3346 79.6166C29.0122 83.9694 36.7414 86.4377 44.7058 86.7609C52.6702 87.0841 60.5741 85.2501 67.5823 81.4527C74.5906 77.6552 80.4431 72.0354 84.5215 65.1869C88.5999 58.3383 90.7529 50.5154 90.7529 42.5444H93Z"/>
</mask>
<path d="M93 42.5444C93 50.9201 90.7378 59.1403 86.4522 66.3367C82.1667 73.533 76.017 79.4382 68.6529 83.4284C61.2887 87.4186 52.9836 89.3458 44.6147 89.0062C36.2459 88.6666 28.1242 86.0729 21.1075 81.4992C14.0909 76.9254 8.43988 70.5414 4.75149 63.0215C1.0631 55.5016 -0.525715 47.1251 0.152889 38.777C0.831493 30.4288 3.75232 22.4189 8.60681 15.5934C13.4613 8.76801 20.0692 3.38048 27.7324 4.21017e-08L28.6394 2.05599C21.3465 5.2731 15.0579 10.4003 10.438 16.8959C5.81813 23.3915 3.03845 31.0143 2.39264 38.959C1.74683 46.9038 3.25887 54.8755 6.76902 62.0319C10.2792 69.1884 15.6571 75.2639 22.3346 79.6166C29.0122 83.9694 36.7414 86.4377 44.7058 86.7609C52.6702 87.0841 60.5741 85.2501 67.5823 81.4527C74.5906 77.6552 80.4431 72.0354 84.5215 65.1869C88.5999 58.3383 90.7529 50.5154 90.7529 42.5444H93Z" stroke="url(#paint0_linear_0_4)" stroke-width="4" mask="url(#path-1-inside-1_0_4)"/>
</g>
<defs>
<linearGradient id="paint0_linear_0_4" x1="6.52101" y1="88.4562" x2="54.9764" y2="20.0853" gradientUnits="userSpaceOnUse">
<stop stop-color="#777165"/>
<stop offset="1" stop-color="#0C0C0C"/>
</linearGradient>
</defs>
</svg>
