<svg preserveAspectRatio="none" width="100%" height="100%" overflow="visible" style="display: block;" viewBox="0 0 226 120.841" fill="none" xmlns="http://www.w3.org/2000/svg">
<g id="Group">
<path id="Vector" d="M0 60.4205V0.000113837H113H226V60.4205V120.841H113H0V60.4205ZM151.927 93.4574C152.244 91.9419 152.244 91.1776 151.901 89.6622C151.479 87.7909 151.176 87.1716 150.57 86.9739L150.122 86.8289L149.068 83.574C148.488 81.7818 147.473 78.6323 146.801 76.5634C146.142 74.4945 145.009 71.0023 144.284 68.8016C142.966 64.8087 142.966 64.7956 143.23 64.5584C143.52 64.2816 143.52 64.1235 143.164 62.7398C142.98 61.9887 142.861 61.8437 142.308 61.7251C141.939 61.6461 142.281 62.6212 138.552 50.9984C137.867 48.8636 136.891 45.8327 136.391 44.2777L135.481 41.4444L135.402 38.6112C135.284 34.9346 135.402 34.078 136.206 32.444C136.76 31.2975 136.852 31.1789 137.405 30.9417C137.893 30.7308 138.236 30.6781 139.277 30.7045C140.977 30.7572 140.99 30.7572 141.161 30.375C141.28 30.0983 141.266 30.0061 141.069 29.782C140.937 29.6371 140.766 29.5185 140.687 29.5185C140.608 29.5185 140.067 29.2813 139.487 28.9914C138.288 28.3852 136.602 27.9767 134.743 27.8581C132.793 27.7263 132.464 28.0426 132.885 29.6239C133.254 31.0339 133.07 32.9843 132.371 35.1191C131.502 37.7415 131.199 39.4414 131.317 41.0491C131.37 41.7739 131.423 42.6041 131.423 42.894C131.436 43.4343 131.04 44.4622 130.856 44.3436C130.803 44.3172 130.658 43.9482 130.54 43.5265C130.197 42.3405 129.973 41.9979 129.275 41.5235C128.919 41.2863 128.603 41.0096 128.563 40.9173C128.537 40.8251 127.97 40.2716 127.324 39.705C121.421 34.5129 121.5 34.6051 121.5 33.4455C121.513 32.3122 122.251 31.2052 123.384 30.6254C124.162 30.2169 124.412 29.7293 124.017 29.3472C123.819 29.1363 123.529 29.0704 122.712 29.0177C121.381 28.9387 121.038 29.11 120.221 30.2696C119.866 30.7572 119.365 31.3634 119.088 31.6138C118.798 31.8773 118.271 32.3649 117.915 32.7075L117.243 33.3401L117.322 34.0121C117.415 34.816 117.678 35.1322 118.337 35.3167C119.141 35.5276 119.444 35.8834 120.445 37.7283C121.421 39.4941 122.501 41.1545 123.186 41.8661C123.384 42.0901 123.911 42.3932 124.372 42.5645C124.821 42.7227 125.242 42.9335 125.321 43.0258C125.4 43.118 125.611 44.08 125.783 45.1474C125.967 46.228 126.244 47.5853 126.402 48.1651C126.929 50.1813 126.942 50.2472 126.784 50.8271C126.705 51.117 126.402 51.6573 126.112 52.0131C124.913 53.4494 124.676 55.2153 125.427 57.1261C126.191 59.0896 126.31 62.0809 125.769 66.2978C125.348 69.5923 125.387 70.5148 125.941 71.7271C126.468 72.8472 127.614 74.5208 128.036 74.8107C128.352 75.0084 128.365 75.0875 128.313 75.8254C128.286 76.2735 128.128 76.9851 127.97 77.4199C127.693 78.1447 127.68 78.3029 127.799 79.2912C128.023 81.1888 129.011 82.4012 130.606 82.7438C131.554 82.9546 132.095 82.9283 133.268 82.612C134.361 82.3089 135.073 81.8477 135.073 81.426C135.073 81.2811 135.191 80.9384 135.336 80.6485C135.692 79.9501 135.679 79.2385 135.31 78.8432C135.033 78.5532 135.033 78.5005 135.191 77.7099C135.284 77.2618 135.416 76.7083 135.495 76.4711C135.626 76.1153 135.6 75.9572 135.376 75.4828C135.218 75.1665 135.06 74.758 135.02 74.5735C134.928 74.1518 134.454 73.9278 133.623 73.9278C133.004 73.9278 132.978 73.9146 132.833 73.4534C132.675 72.9922 132.688 72.979 133.399 72.2279C134.506 71.0682 134.941 70.0535 135.271 67.8528C135.376 67.1412 135.468 65.8366 135.468 64.9537V63.346L136.957 63.4383C138.96 63.57 139.25 63.6491 140.318 64.3607C140.818 64.7033 141.438 65.0064 141.688 65.046L142.149 65.125L143.494 69.2365C144.231 71.4899 145.839 76.4316 147.078 80.2136L149.318 87.0925L149.028 87.4878C148.751 87.8568 148.751 87.9359 148.896 88.8188C149.173 90.5187 149.872 91.9946 151.124 93.5364C151.374 93.8395 151.624 94.0899 151.677 94.0899C151.743 94.0899 151.848 93.8 151.927 93.4574ZM165.369 89.4118C165.448 89.4513 165.514 89.5831 165.514 89.7017C165.514 89.873 165.58 89.8467 165.856 89.5963C166.041 89.425 166.278 89.1087 166.383 88.911C166.489 88.7134 166.634 88.5816 166.7 88.6211C166.779 88.6738 166.845 88.542 166.845 88.3312C166.871 87.6987 166.818 87.4483 166.607 87.3033C166.436 87.1716 166.476 87.0134 166.937 86.1041C167.319 85.3398 167.438 84.9577 167.398 84.6414C167.345 84.2988 167.424 84.1275 167.899 83.6135C168.466 83.0074 168.466 82.9942 168.215 82.7702C167.899 82.5198 167.556 81.3469 167.741 81.1229C167.938 80.8857 168.057 79.5284 167.899 79.2253C167.688 78.8168 167.121 78.7377 166.779 79.054C166.001 79.7788 165.435 78.9749 166.028 77.9866C166.423 77.3541 167.596 77.0641 169.757 77.0773L171.431 77.0905L173.908 77.8943C176.833 78.8563 176.926 78.8959 178.006 79.8183C178.837 80.5167 178.837 80.5167 179.746 80.5167C180.866 80.5167 181.024 80.4509 181.274 79.9369C181.788 78.8432 182.408 78.1447 182.869 78.1447C183.04 78.1447 183.172 78.092 183.172 78.0393C183.172 77.9734 183.317 77.8416 183.501 77.7494C183.686 77.6571 183.831 77.4858 183.831 77.3936C183.831 77.2882 183.778 77.2355 183.712 77.2882C183.646 77.3277 183.554 77.3013 183.501 77.2355C183.462 77.1564 183.08 77.275 182.605 77.499C181.775 77.8943 181.393 77.9734 181.274 77.7626C181.129 77.5385 179.443 77.4858 178.692 77.6835C178.296 77.7889 177.901 77.8812 177.822 77.8812C177.743 77.8812 177.176 77.4858 176.57 76.9983C174.567 75.4169 172.854 74.3627 172.01 74.1914C171.589 74.1123 170.811 73.8356 170.284 73.5852C169.493 73.2162 169.23 73.1503 168.808 73.2162C168.505 73.2689 168.281 73.2557 168.281 73.1767C168.281 72.9527 168.69 71.7667 168.887 71.3845C168.993 71.1868 169.045 70.9628 169.006 70.8969C168.808 70.5675 169.124 70.5279 169.52 70.831C169.757 71.0155 170.047 71.1605 170.152 71.1605C170.587 71.1605 171.944 72.0039 173.961 73.5325C176.28 75.2851 176.781 75.5092 177.73 75.2324C178.257 75.0875 178.955 74.4945 178.955 74.1782C178.955 73.9542 179.654 74.2177 180.708 74.8239C181.762 75.4169 182.276 75.5487 181.327 74.9689C180.286 74.3363 180.273 74.3363 180.932 74.31L181.525 74.2968L180.668 74.0991C180.194 73.9937 179.693 73.8883 179.535 73.8619C179.1 73.7697 178.362 72.9922 178.402 72.6496C178.441 72.3728 178.033 72.0039 177.861 72.162C177.822 72.2015 177.426 72.2806 176.965 72.3465C175.713 72.531 175.094 72.3201 174.514 71.5031C173.724 70.4093 171.905 68.6171 171.088 68.1427C170.666 67.8924 170.047 67.5234 169.691 67.3257C169.19 67.0226 169.006 66.9699 168.742 67.0753L168.413 67.2071V66.1792C168.413 65.6258 168.36 64.9669 168.294 64.7429C168.215 64.4793 168.215 63.8599 168.307 63.0956C168.479 61.5011 168.466 59.9857 168.281 59.7616C168.176 59.6299 168.215 59.1686 168.479 57.8904C168.663 56.9679 168.9 55.9401 169.006 55.6106C169.375 54.4378 169.717 52.3425 169.862 50.4054C169.941 49.3248 170.086 47.8752 170.192 47.2163C170.469 45.5296 170.442 44.9102 170.126 44.5017C169.981 44.3172 169.862 43.9878 169.862 43.7637C169.862 43.5397 169.77 42.7754 169.652 42.077C169.467 40.9305 169.467 40.6406 169.665 38.9538C169.77 37.9259 169.955 36.6345 170.073 36.0811C170.31 34.895 170.205 34.5656 169.586 34.4338C169.375 34.3943 169.177 34.3152 169.151 34.2757C169.111 34.223 169.507 33.6959 170.007 33.0897C170.508 32.4835 170.917 31.9432 170.917 31.8773C170.917 31.6928 171.971 31.4556 173.157 31.3766C174.237 31.2975 174.277 31.2843 174.461 30.9153C174.857 30.072 174.185 29.8084 171.562 29.7952C170.245 29.782 169.441 29.8479 169.006 29.9665C168.413 30.151 168.386 30.151 168.321 29.9006C168.255 29.6898 168.136 29.6503 167.477 29.6503C166.871 29.6503 166.7 29.6107 166.7 29.4526C166.7 29.3472 166.673 29.2549 166.647 29.2549C166.621 29.2549 166.12 29.1627 165.553 29.0573C164.235 28.8069 162.47 28.8069 161.218 29.0573C160.335 29.2417 160.203 29.2417 159.953 29.0573C159.61 28.8332 157.62 28.7805 157.212 28.9914C156.869 29.1759 156.764 30.0588 156.948 31.0998C157.08 31.8378 157.08 31.9696 156.895 32.1013C156.645 32.2727 156.619 32.5626 156.843 32.7866C156.948 32.892 156.909 32.9711 156.645 33.0897C156.21 33.2873 156.197 33.5641 156.605 34.3679C157.264 35.6594 157.383 36.371 157.278 38.3345C157.185 40.0871 157.317 42.0243 157.62 43.6188C157.765 44.3831 158.819 47.6644 159.07 48.1256C159.149 48.2837 159.228 49.2589 159.241 50.4581C159.254 52.3293 159.294 52.5929 159.597 53.3045C159.966 54.2006 159.953 54.2928 159.333 56.0059C158.991 56.9811 158.925 57.3106 158.925 58.457C158.925 59.8539 159.057 60.381 159.755 61.9755L160.098 62.7398L159.781 62.8584C159.597 62.9243 159.452 63.0693 159.452 63.1747C159.452 63.2933 159.281 63.4646 159.057 63.5832C158.846 63.7018 158.661 63.8599 158.648 63.9522C158.595 64.6638 158.727 65.6521 158.925 66.1924C159.149 66.7722 159.149 66.8777 158.977 67.3784C158.582 68.4722 158.411 72.7813 158.661 75.0348C158.833 76.4711 159.07 77.0378 159.979 78.1184C160.651 78.9222 160.664 78.9618 160.572 79.5416C160.48 80.2005 160.638 80.5167 161.046 80.5167C161.56 80.5167 161.297 82.4934 160.651 83.3895C160.519 83.5872 160.229 84.0879 160.005 84.5096C159.689 85.1158 159.623 85.3398 159.715 85.5902C159.795 85.8011 159.781 85.9197 159.689 85.946C159.584 85.9855 159.597 86.091 159.702 86.3018C159.926 86.6971 159.795 86.7894 159.399 86.5258C159.215 86.4072 158.925 86.315 158.753 86.315C158.45 86.315 158.437 86.3545 158.45 87.1057C158.45 87.5405 158.477 87.8963 158.503 87.8963C158.516 87.8963 158.78 87.7777 159.07 87.6196C159.544 87.3824 159.663 87.3692 160.005 87.5142C160.282 87.6328 160.348 87.6987 160.216 87.7777C160.005 87.9227 160.243 88.1072 160.77 88.239C160.954 88.2917 161.257 88.4762 161.455 88.6475C161.732 88.911 161.903 88.9637 162.325 88.9242C162.615 88.8978 162.825 88.9242 162.799 88.9769C162.694 89.1482 163.208 89.0955 163.392 88.9242C163.524 88.7792 163.577 88.7924 163.682 88.9769C163.893 89.3459 164.341 89.5436 164.473 89.3327C164.552 89.2009 164.591 89.2668 164.591 89.5304V89.9125L164.908 89.6226C165.092 89.4513 165.29 89.3591 165.369 89.4118ZM103.749 79.9764C104.224 79.7392 104.408 79.5679 104.461 79.3044C104.5 79.1067 104.645 78.909 104.777 78.8695C105.172 78.7377 105.462 78.1974 105.37 77.7757C105.133 76.7742 105.159 76.4053 105.489 76.0099C105.699 75.7595 105.792 75.5223 105.752 75.3642C105.713 75.2324 105.765 74.9425 105.897 74.7053C106.161 74.1782 106.068 73.4139 105.607 72.6496C105.186 71.9248 104.922 71.793 103.934 71.8325C103.209 71.8589 103.103 71.8325 102.972 71.569C102.84 71.3054 102.906 71.2 103.644 70.462C104.276 69.8295 104.553 69.4078 104.896 68.5908C105.33 67.5497 105.33 67.5102 105.423 64.8351C105.528 61.8964 105.449 60.8422 105.001 59.2345C104.777 58.4702 104.698 57.785 104.685 56.7307C104.672 55.9401 104.606 53.7394 104.527 51.8549L104.408 48.4287L105.357 46.9791C105.884 46.1885 106.385 45.3846 106.477 45.2133C106.714 44.7389 106.675 43.5134 106.372 42.7622C106.227 42.4064 105.976 41.7739 105.818 41.3785C105.66 40.9832 105.212 39.9422 104.803 39.0856C103.855 37.043 102.655 33.5114 102.563 32.4703C102.497 31.6928 102.51 31.6533 102.972 31.1394C103.248 30.8363 103.789 30.4541 104.263 30.2433C104.988 29.9138 105.172 29.8875 106.042 29.9665C107.452 30.0851 108.203 29.6107 107.795 28.8728C107.61 28.517 107.294 28.3588 106.2 28.0557C104.975 27.7131 104.566 27.7395 103.314 28.2007C102.339 28.5565 102.089 28.596 100.666 28.596C98.6889 28.596 98.399 28.7146 98.1881 29.6239C97.9904 30.4146 98.1486 30.9153 98.9392 32.1409C99.4532 32.9315 99.4927 33.0501 99.4927 33.9199C99.5059 35.3036 99.7299 38.0314 99.9012 38.6376C100.007 39.0592 100.007 39.2042 99.8617 39.2964C99.6377 39.4546 97.3579 39.3228 95.8952 39.0724C94.2611 38.7825 93.4968 38.4662 92.1658 37.5174C90.8349 36.5818 90.7294 36.3578 90.8349 34.6974C90.9139 33.6827 90.993 33.4718 91.6651 32.5889C92.1658 31.93 92.2054 31.6928 91.9023 31.258C91.3225 30.4278 89.8202 31.4293 89.4117 32.9052C88.6473 35.6462 88.5946 35.778 87.7513 36.7268C86.842 37.7283 86.7761 38.8484 87.5536 39.7577C87.8962 40.153 88.3047 40.1925 89.9124 39.9949C90.7953 39.8763 90.8612 39.9158 92.9038 41.563C93.589 42.1165 94.6564 42.8281 95.2626 43.1312C96.251 43.6188 96.4618 43.6715 97.3184 43.6715H98.2672L98.3594 45.4373L98.4517 47.2032L97.6346 48.6C97.1734 49.3775 96.6068 50.2868 96.3827 50.6294C95.9215 51.3146 95.6052 52.1844 95.4866 53.1068C95.3812 53.858 95.6316 54.8463 96.251 56.1377C96.5145 56.678 96.7254 57.2974 96.7254 57.5082C96.7254 57.7322 96.5804 58.4966 96.3959 59.2345C96.1719 60.1438 96.0401 61.2244 95.9479 62.7267C95.882 63.9258 95.6843 65.7971 95.5262 66.8777C95.2758 68.604 95.2494 68.9729 95.3944 69.7636C95.6316 71.2 96.0928 72.0697 97.1207 73.0581L98.0168 73.9146L97.6346 74.8107C96.844 76.682 97.3843 78.4083 99.1764 79.7129C100.138 80.4113 102.576 80.5563 103.749 79.9764ZM184.16 78.2765C184.015 78.2106 183.778 78.1579 183.633 78.1579H183.37L183.633 78.2765C183.778 78.3424 184.015 78.3951 184.16 78.3951H184.424L184.16 78.2765ZM188.641 76.8797C189.221 76.4975 189.484 75.2324 189.049 74.9162C188.878 74.7844 188.878 74.7053 189.036 74.2441C189.142 73.9674 189.221 73.4007 189.234 72.9922C189.234 72.4783 189.313 72.1488 189.484 71.938C189.616 71.7667 189.787 71.4899 189.88 71.3186C190.011 71.0682 189.998 71.0155 189.708 70.8706C189.484 70.7783 189.379 70.6202 189.392 70.4489C189.392 70.2907 189.339 69.9086 189.247 69.5923C189.155 69.276 189.115 68.8807 189.155 68.7226C189.287 68.2086 188.944 68.0505 188.153 68.2613C187.534 68.4195 187.468 68.4063 187.297 68.1823C187.204 68.0505 187.165 67.8528 187.204 67.7342C187.257 67.6288 187.31 67.3653 187.323 67.1412C187.376 66.6536 188.127 64.8878 188.918 63.4383C189.431 62.5026 189.721 62.16 190.855 61.1585C192.252 59.9329 193.227 59.1686 193.688 58.9183C193.859 58.826 194.9 58.7733 196.508 58.7733C200.171 58.7733 203.202 58.2989 203.202 57.7191C203.202 57.64 203.281 57.5873 203.387 57.5873C203.492 57.5873 203.756 57.3764 203.98 57.1261C204.296 56.7703 204.388 56.5331 204.388 56.1246C204.388 55.2943 204.243 55.1494 203.242 54.9649C202.016 54.7277 201.819 54.7804 201.819 55.3339C201.819 55.7687 201.397 56.2695 201.015 56.2695C200.778 56.2695 200.58 55.8873 200.672 55.5843C200.699 55.4525 200.633 55.2285 200.514 55.0967C200.303 54.8727 200.303 54.8463 200.527 54.7409C200.659 54.6882 201.239 54.6091 201.819 54.5696L202.873 54.4905V54.082V53.6735L204.388 53.5944C206.167 53.5022 206.497 53.4231 206.497 53.1068C206.497 52.4611 208.157 49.4961 209.251 48.1651C209.673 47.6644 210.239 46.9001 210.516 46.4652C210.885 45.8854 211.201 45.5823 211.807 45.2133C212.256 44.9497 212.901 44.449 213.244 44.0932C213.797 43.5397 213.929 43.4606 214.298 43.5134C214.535 43.5529 215.168 43.5397 215.708 43.4738C216.486 43.3816 216.894 43.4211 217.79 43.6188C219.767 44.08 220.729 43.9087 220.979 43.0258C221.19 42.2483 220.927 41.5103 220.215 40.9041C219.925 40.6538 219.912 40.5879 220.044 40.2057C220.136 39.9553 220.149 39.6654 220.083 39.4941C219.938 39.1251 218.924 38.1763 218.37 37.8996C218.146 37.781 217.962 37.6624 217.962 37.6229C217.962 37.5306 219.055 37.9391 219.385 38.1631C219.727 38.3872 220.07 38.3213 220.07 38.0314C220.07 37.7019 219.227 37.0957 217.803 36.3841C216.472 35.7252 216.407 35.6725 216.103 35.0268C215.51 33.7617 215.445 33.709 214.324 33.8145C213.547 33.8804 213.297 33.8672 213.033 33.6827C212.849 33.5641 212.585 33.4718 212.453 33.4718C212.269 33.4718 212.176 33.3532 212.111 33.0633C211.966 32.3254 212.018 31.7719 212.242 31.6533C212.598 31.4556 212.321 31.2316 211.702 31.2316C211.083 31.2316 210.806 31.4556 211.162 31.6533C211.412 31.7983 211.438 32.6943 211.201 33.2478L211.043 33.6168H208.078C204.744 33.6036 204.388 33.6827 203.967 34.4997C203.729 35.0005 203.611 36.7268 203.558 40.6933C203.532 43.2366 203.532 43.2498 203.202 43.5134C202.965 43.6978 202.767 43.7506 202.478 43.6978C202.267 43.6451 200.659 43.5529 198.92 43.4738C197.18 43.4079 195.717 43.3025 195.651 43.2366C195.586 43.1707 195.559 42.9599 195.586 42.749C195.612 42.4723 195.717 42.3537 195.955 42.301L196.284 42.2219L196.324 38.2159L196.363 34.1966L196.772 33.999C197.141 33.8276 197.22 33.6959 197.417 32.9052C197.734 31.5479 197.813 31.5083 199.921 31.4029C201.463 31.337 201.805 31.2843 202.609 30.9417C203.94 30.4014 204.309 29.8348 203.729 29.2549C203.466 28.9914 203.295 28.9914 194.347 28.9914C186.058 28.9914 185.215 29.0045 184.991 29.2154C184.687 29.4921 184.687 30.072 184.991 30.3487C185.122 30.4673 185.676 30.744 186.216 30.968C187.125 31.3502 187.297 31.3766 188.852 31.3766C190.459 31.3897 190.538 31.3897 190.828 31.706C191.013 31.9037 191.197 32.3517 191.303 32.8525C191.461 33.6036 191.711 34.0121 192.133 34.1571C192.225 34.1834 192.252 35.2508 192.238 37.1353L192.199 40.0608L190.591 38.5717C188.852 36.9244 188.786 36.8981 187.178 36.8981C186.651 36.8981 186.177 36.8454 186.137 36.7663C186.097 36.7004 185.913 36.6345 185.742 36.6345C185.386 36.6345 185.109 37.0299 185.228 37.3461C185.333 37.6097 185.794 37.7546 185.979 37.5701C186.15 37.3988 188.166 37.3725 188.614 37.5438C188.786 37.6097 189.55 38.2554 190.301 38.967C191.052 39.6786 191.804 40.3507 191.975 40.4561C192.199 40.6142 192.278 40.8251 192.344 41.4708C192.423 42.1824 192.476 42.2878 192.739 42.3537C192.976 42.4196 193.055 42.525 193.055 42.8149V43.1971L189.603 43.2498C187.494 43.2893 185.992 43.3684 185.781 43.4606C185.294 43.6583 185.215 44.08 185.491 45.1474C185.689 45.9381 185.689 46.2016 185.544 47.3745C185.452 48.0992 185.294 48.8504 185.201 49.048C185.096 49.2325 184.661 49.6674 184.213 50.01C183.554 50.5108 183.33 50.6162 183.027 50.5503C182.553 50.4581 182.553 50.4581 181.657 53.12C181.274 54.2928 180.932 55.2548 180.905 55.2812C180.879 55.3075 180.655 54.5432 180.405 53.568C180.167 52.5929 179.917 51.8286 179.864 51.8549C179.825 51.8945 179.746 52.0921 179.706 52.3162C179.548 53.0673 179.39 52.7115 179.298 51.4332C179.245 50.7348 179.179 50.1286 179.14 50.0891C179.074 50.01 177.361 51.7759 177.018 52.2766C176.847 52.5402 176.847 52.6983 177.044 53.858C177.202 54.8068 177.242 55.5184 177.176 56.5331C177.057 58.5756 177.4 62.4894 177.769 63.3592C178.112 64.1367 178.125 64.0313 177.031 66.4164C176.715 67.1149 176.451 67.8001 176.451 67.9187C176.451 68.0373 176.57 68.235 176.715 68.3536C176.86 68.4854 176.978 68.7226 176.978 68.8807C176.978 69.3551 177.545 69.5132 178.27 69.2365C179.35 68.828 180.128 67.9055 180.326 66.7854C180.378 66.5087 180.457 66.2715 180.523 66.232C180.695 66.1134 182.895 68.3009 182.988 68.683C183.067 69.052 183.409 69.4342 183.554 69.3156C183.594 69.276 183.646 69.5001 183.673 69.8163C183.699 70.2512 183.594 70.6465 183.185 71.5294C182.315 73.4402 182.329 74.9293 183.212 75.8913C183.37 76.0626 183.778 76.3789 184.108 76.6161C184.714 77.0246 184.74 77.0246 186.532 77.051C187.956 77.0773 188.404 77.0378 188.641 76.8797ZM73.0052 73.4139C74.0068 73.0581 74.5734 72.4783 75.0215 71.345C75.4432 70.238 75.4432 70.2117 75.1664 69.6714C75.0478 69.4342 74.9029 69.1574 74.8501 69.052C74.7184 68.7753 74.8501 67.8528 75.061 67.5366C75.3377 67.1544 75.285 66.8645 74.7974 65.8103C74.0068 64.163 73.2556 63.8863 71.2921 64.5057L70.9627 64.6111L71.3053 64.2948C71.7665 63.8599 72.0037 62.2522 71.9247 60.1438C71.872 58.6283 71.8588 58.5361 71.3317 57.4555L70.7914 56.3354L71.6611 55.3602C72.1487 54.8199 72.8998 54.0952 73.3347 53.7394C75.1137 52.2898 75.4168 51.9867 76.4578 50.6953C77.0508 49.9573 77.8415 49.0217 78.2237 48.6132C79.4492 47.3086 79.9763 45.7931 79.7523 44.1854C79.5678 42.8281 79.0539 42.3537 77.8811 42.4591C77.1036 42.5382 74.9819 43.7769 74.9819 44.1591C74.9819 44.5544 75.5486 44.8443 76.1548 44.7389C76.6555 44.6598 76.695 44.673 76.7741 45.0156C76.8532 45.3187 76.5896 46.4388 76.3261 46.9528C76.2338 47.1504 75.9044 46.7551 75.7462 46.228C75.5618 45.5955 75.1796 45.3451 74.8633 45.6613C74.692 45.8327 74.6525 46.1357 74.6788 47.2954C74.7052 48.9426 74.7843 48.824 73.2425 49.2194C71.8456 49.5752 70.6464 50.4449 69.6317 51.8286C68.9992 52.7115 69.0387 52.7378 68.4852 51.2487C68.3139 50.7875 67.8922 49.8519 67.5496 49.1666L66.9303 47.9411L67.4969 47.4535C68.2349 46.8342 68.6566 46.4125 69.9085 45.1079C71.0549 43.8955 71.0286 43.9614 71.2921 41.4576C71.358 40.746 71.6611 38.9406 71.951 37.4515C72.2541 35.9493 72.5308 34.1439 72.5704 33.4323L72.6494 32.1277L73.1107 31.93C73.5324 31.7587 73.7037 31.7587 74.7579 31.9696C75.6408 32.1409 76.2734 32.1672 77.3012 32.1145C78.8299 32.0223 79.3701 31.8378 79.436 31.3766C79.4887 31.0208 78.8826 30.3092 78.5136 30.3092C78.3818 30.3092 77.9601 30.151 77.5911 29.9665C77.064 29.703 76.6028 29.5976 75.6013 29.5185L74.2967 29.4131L73.2161 28.6751C72.0301 27.8713 71.4898 27.6868 70.91 27.9371C70.3301 28.1743 70.1193 28.5829 69.9875 29.8084C69.7635 31.6533 69.1441 33.4059 68.1822 34.8423C67.6287 35.6857 67.3388 36.8058 67.3388 38.0973C67.3388 38.9143 67.2861 39.1647 67.062 39.4546C66.7326 39.8631 66.6008 39.8104 66.4954 39.2306C66.39 38.6376 65.5993 37.7415 64.8482 37.3725C64.5187 37.2012 63.6753 36.9113 62.9769 36.7136C62.2785 36.5291 61.1452 36.1074 60.4468 35.7648L59.1685 35.1718V34.4865C59.1817 33.1424 59.4189 31.482 59.6825 30.9153C59.8406 30.6122 59.9592 30.2828 59.9592 30.1906C59.9592 30.0983 60.1041 29.8479 60.2886 29.6239C60.7103 29.1363 60.7103 28.8464 60.2755 28.3457C59.7879 27.7658 59.1422 27.779 58.5623 28.372C58.3383 28.596 57.9693 28.9518 57.7453 29.1495C57.5213 29.3472 57.3236 29.703 57.2709 29.9665C57.0469 31.1525 56.7701 31.7851 56.1244 32.5099C55.2415 33.5245 54.833 34.223 54.7408 34.9346C54.609 35.9756 55.3338 36.8585 56.5857 37.1616C57.3895 37.3593 57.8376 37.6492 58.5755 38.4004C58.9445 38.7693 59.5902 39.3228 60.0383 39.6127L60.8289 40.1398L60.17 40.6011C59.6429 40.9569 56.6515 43.7506 55.3338 45.1211C54.3059 46.1885 54.833 48.3628 56.7701 51.0115C57.2709 51.6968 57.8376 52.5402 58.0484 52.8828L58.4174 53.5153L58.0616 54.1479C57.8771 54.5037 57.719 54.9649 57.719 55.1757C57.719 55.6106 58.5096 57.2842 59.5902 59.1686C60.3941 60.5523 60.5522 60.9345 61.1979 63.0956C61.4483 63.9127 61.8041 64.8351 61.9886 65.1514C62.1731 65.4676 63.2273 66.6009 64.3474 67.6815C65.9024 69.1838 66.4822 69.8559 66.8644 70.5411C67.4706 71.6217 68.8806 72.9395 69.8689 73.3612C70.765 73.7433 72.0169 73.7565 73.0052 73.4139ZM179.627 73.2953C179.535 73.2689 179.39 73.3085 179.324 73.3743C179.219 73.4798 179.271 73.4929 179.495 73.4402C179.667 73.3875 179.733 73.3348 179.627 73.2953ZM43.9481 60.7368C44.1721 60.605 44.7256 60.3019 45.1868 60.0647C46.0697 59.6167 46.5705 59.0896 46.7286 58.4439C46.7813 58.233 46.8736 57.9694 46.9395 57.8904C47.1371 57.64 46.9527 57.1129 46.5837 56.8757C46.2542 56.6648 46.1356 56.2168 46.3728 56.085C46.5441 55.9796 46.9131 54.7672 46.9131 54.3324C46.9131 53.7657 46.5573 53.3308 46.1752 53.4231C45.9248 53.489 45.8589 53.4494 45.8589 53.2518C45.8589 52.8828 45.3186 52.5929 44.5411 52.5534C43.8822 52.5006 43.8295 52.4743 42.3536 51.0774C41.5234 50.2999 40.7591 49.4961 40.6668 49.2984C40.4955 48.9822 40.5219 48.7581 41.049 46.9132C41.3652 45.7931 41.866 44.3699 42.1559 43.7506C42.7357 42.4987 42.9598 41.5103 42.9598 40.153C42.9598 39.3755 43.0125 39.1383 43.3287 38.6244C44.0667 37.412 44.3039 36.6477 44.3962 35.2377C44.4752 33.9462 44.4884 33.8935 44.9101 33.4982C45.7139 32.7471 45.9643 31.5742 45.4504 30.9153C45.3054 30.7308 45.0814 30.5727 44.9496 30.5727C44.8178 30.5727 44.5543 30.4278 44.3566 30.2433C44.0535 29.9534 43.8954 29.927 43.0784 29.9402C42.011 29.9534 41.9055 30.0588 41.9055 31.0471C41.9055 31.3897 41.8397 31.8773 41.7606 32.1541C41.6552 32.4967 41.6552 32.8261 41.7474 33.2873C41.8792 33.8935 41.866 33.9594 41.5234 34.3943C41.3125 34.6578 41.0226 35.1059 40.8645 35.4222C40.7064 35.7252 40.5746 35.9756 40.5482 35.9756C40.4164 35.9756 40.5087 33.63 40.6668 32.9974C40.8777 32.0882 40.7986 31.7192 40.311 31.2975C39.2831 30.4146 38.6506 30.1906 37.8204 30.4014C37.2538 30.5464 37.1615 31.0076 37.6886 31.0735C38.2157 31.1525 38.2685 31.3107 37.9522 31.7719L37.6491 32.1936L37.3855 31.8378L37.1352 31.482L36.8321 31.7587C36.5685 32.0091 36.529 32.1541 36.5553 32.8657C36.5817 33.3005 36.6871 33.854 36.7925 34.0648C37.122 34.6974 37.1747 35.3431 37.0034 36.3841C36.9111 36.9244 36.8452 38.374 36.8321 39.5995V41.8398L36.0678 43.3948L35.3166 44.9497L34.3942 44.1986L33.4585 43.4475L34.236 42.7095C35.2639 41.7343 35.5143 41.0886 35.4089 39.705C35.2112 37.1616 34.9213 34.4997 34.7368 33.5377C34.4337 31.9827 34.4601 31.6006 34.8949 31.2052C35.7251 30.4278 36.8848 29.9006 38.4793 29.5844C39.0328 29.4658 39.27 29.2945 39.27 29.0045C39.27 28.6751 38.6901 28.1743 38.4398 28.2798C38.308 28.3193 38.2157 28.2929 38.2157 28.2139C38.2157 28.1348 38.0708 27.9767 37.8863 27.8581C37.5964 27.6736 37.4514 27.6604 36.6739 27.8054C36.1732 27.8976 35.3298 28.1348 34.7895 28.3325C34.2492 28.5301 33.3399 28.8069 32.7601 28.9255C31.2183 29.2681 31.1788 29.334 31.2842 31.2448C31.3764 32.7471 31.3633 32.8393 30.9548 34.1439C30.5462 35.4353 30.5331 35.5144 30.678 36.4105C30.7703 36.9113 30.823 37.3461 30.7966 37.3725C30.7703 37.3988 30.1114 37.0957 29.3075 36.6872C28.5169 36.2919 27.2254 35.6594 26.4216 35.2904C22.5341 33.4982 22.8767 33.6959 22.7054 33.1292C22.5078 32.4571 22.745 31.9432 23.4697 31.4688C23.7728 31.2711 24.3658 30.7967 24.7875 30.4278C25.5387 29.7689 25.71 29.4131 25.4596 29.0309C25.1565 28.5433 23.2589 28.4247 22.6132 28.8464C22.1388 29.1627 20.3334 31.1657 20.228 31.482C20.1885 31.6138 19.9249 31.9037 19.635 32.1409C19.1738 32.5099 19.1079 32.6285 19.1079 33.116C19.1079 33.8408 19.3583 34.1834 20.2016 34.6051C21.2427 35.1322 21.8225 35.6462 22.8636 36.964C23.9178 38.2817 24.9588 39.2833 25.565 39.56C25.789 39.6522 25.9604 39.7577 25.9604 39.8104C25.9604 39.8763 25.5123 40.2057 23.5883 41.5499C22.1915 42.5118 22.007 42.7227 22.007 43.3552C22.007 44.6071 22.7581 46.1621 24.0891 47.6776C24.8534 48.5605 28.0556 51.5255 29.5052 52.6851C29.9796 53.0805 31.3764 54.3455 32.5888 55.5052C35.2244 58.009 35.7383 58.3121 37.7018 58.4966C38.3871 58.5625 39.1645 58.7074 39.4149 58.8128C39.6653 58.9183 40.232 59.3927 40.6668 59.8802C41.273 60.5523 41.6156 60.8159 42.0505 60.9476C42.7226 61.1585 43.3946 61.0794 43.9481 60.7368Z" fill="var(--fill-0, #0C0C0C)"/>
<path id="Vector_2" d="M139.237 60.7142C138.842 60.5956 138.815 60.5034 136.825 54.468L134.809 48.3534L135.205 47.0884C135.429 46.4031 135.613 45.7179 135.613 45.5597C135.613 45.1908 135.824 45.3489 135.929 45.7969C135.982 46.0078 137.049 49.3418 138.301 53.2161C139.566 57.0903 140.634 60.398 140.687 60.5693C140.766 60.8328 140.726 60.8592 140.199 60.846C139.883 60.846 139.461 60.7801 139.237 60.7142Z" fill="var(--fill-0, #0C0C0C)"/>
<path id="Vector_3" d="M157.211 76.0362C157.106 75.8649 157.277 75.8649 157.541 76.0362C157.712 76.1416 157.712 76.168 157.515 76.168C157.396 76.168 157.251 76.1153 157.211 76.0362Z" fill="var(--fill-0, #0C0C0C)"/>
<path id="Vector_4" d="M174.672 66.6141C174.672 66.4296 175.081 65.7707 175.213 65.7312C175.437 65.6521 176.122 65.7707 176.122 65.8761C176.096 66.1792 174.672 66.904 174.672 66.6141Z" fill="var(--fill-0, #0C0C0C)"/>
<path id="Vector_5" d="M176.122 66.3637C176.122 66.3374 176.214 66.2451 176.32 66.1529C176.478 66.0211 176.518 66.0211 176.518 66.2056C176.518 66.3242 176.425 66.4164 176.32 66.4164C176.214 66.4164 176.122 66.3901 176.122 66.3637Z" fill="var(--fill-0, #0C0C0C)"/>
<path id="Vector_6" d="M176.979 65.7576C177.018 65.6917 177.111 65.6258 177.19 65.6258C177.256 65.6258 177.308 65.6917 177.308 65.7576C177.308 65.8366 177.216 65.8893 177.097 65.8893C176.992 65.8893 176.939 65.8366 176.979 65.7576Z" fill="var(--fill-0, #0C0C0C)"/>
<path id="Vector_7" d="M173.487 61.0926C173.487 60.9871 173.447 60.8158 173.408 60.6972C173.355 60.5654 173.395 60.4864 173.526 60.4864C173.75 60.4864 173.948 60.9344 173.816 61.1453C173.698 61.3429 173.487 61.3034 173.487 61.0926Z" fill="var(--fill-0, #0C0C0C)"/>
<path id="Vector_8" d="M164.623 48.628C164.571 48.3776 164.294 47.5737 164.017 46.8358C163.74 46.0978 163.451 45.1227 163.385 44.6614C163.253 43.8839 163.187 43.7785 162.449 43.0537C162.014 42.6321 161.632 42.1576 161.606 41.9995C161.566 41.8546 161.513 41.4592 161.461 41.143C161.421 40.8135 161.21 40.1283 160.999 39.6275C160.775 39.1136 160.604 38.5337 160.604 38.3361C160.604 38.1516 160.868 37.4795 161.197 36.8602C161.527 36.2276 161.79 35.5951 161.79 35.4369C161.79 35.2788 161.645 34.9625 161.461 34.7385C161.144 34.3168 161.144 34.3037 161.395 34.0796C161.54 33.9479 161.658 33.6975 161.658 33.5393C161.658 33.3285 161.79 33.1572 162.054 33.0254C162.278 32.9068 162.515 32.6696 162.581 32.4851C162.752 32.0371 163.661 31.6417 164.531 31.6417H165.216V32.2084C165.216 32.5115 165.124 33.0518 165.019 33.4076C164.782 34.1719 164.755 35.2393 164.966 35.6214C165.071 35.8191 165.071 36.3594 164.953 37.6245C164.834 38.9423 164.834 40.1678 164.94 42.8429C165.019 44.7669 165.124 46.6513 165.164 47.0334C165.256 47.8373 165.164 48.483 164.9 48.8388C164.729 49.076 164.716 49.0497 164.623 48.628Z" fill="var(--fill-0, #0C0C0C)"/>
<path id="Vector_9" d="M192.238 42.0768C191.487 42.0241 191.408 41.9319 191.777 41.5892C191.948 41.4443 192.449 41.3389 193.398 41.2466C194.149 41.1675 195.137 41.0753 195.599 41.0358C196.495 40.9435 196.64 41.0621 196.02 41.4179C195.809 41.5497 195.559 41.7737 195.493 41.9187C195.361 42.1427 195.216 42.1691 194.136 42.1427C193.464 42.1295 192.607 42.1032 192.238 42.0768Z" fill="var(--fill-0, #0C0C0C)"/>
<path id="Vector_10" d="M197.905 33.7747C198.682 31.2841 198.932 31.0205 199.684 31.8244C199.908 32.0747 200.105 32.3383 200.105 32.4174C200.105 32.6677 199.288 33.4584 198.735 33.722C198.049 34.0646 197.812 34.0778 197.905 33.7747Z" fill="var(--fill-0, #0C0C0C)"/>
<path id="Vector_11" d="M204.479 43.7562C204.123 43.4399 204.123 43.4268 204.334 43.0182C204.677 42.3462 204.743 39.7501 204.453 38.5114C204.15 37.2068 204.216 35.0061 204.572 34.6108C205.006 34.1364 205.402 34.1364 211.793 34.5581C212.491 34.5976 213.019 34.5844 213.111 34.5054C213.203 34.4263 213.651 34.334 214.099 34.2813C214.903 34.1891 214.916 34.1891 215.127 34.5844C215.443 35.217 215.391 35.3487 214.771 35.4146C214.376 35.4673 213.967 35.3883 213.427 35.1642C212.412 34.7689 212.136 34.7821 211.872 35.2301C211.635 35.6387 211.147 37.1409 211.081 37.6285C211.042 37.958 210.923 37.9975 210.37 37.8262C210.133 37.7471 209.895 37.958 208.933 39.0385C208.301 39.7501 207.154 41.1602 206.39 42.1749C205.626 43.1896 204.967 44.0329 204.927 44.0461C204.888 44.0593 204.677 43.9275 204.479 43.7562Z" fill="var(--fill-0, #0C0C0C)"/>
</g>
</svg>
