<svg preserveAspectRatio="none" width="100%" height="100%" overflow="visible" style="display: block;" viewBox="0 0 29.7353 29.7353" fill="none" xmlns="http://www.w3.org/2000/svg">
<g id="dollar-sign" clip-path="url(#clip0_0_4)">
<path id="Vector" d="M14.8677 1.23897V28.4964" stroke="var(--stroke-0, #777165)" stroke-width="3" stroke-linecap="square" stroke-linejoin="round"/>
<path id="Vector_2" d="M21.0625 6.19486H11.7702C10.6202 6.19486 9.51717 6.65173 8.70394 7.46497C7.89071 8.2782 7.43384 9.38118 7.43384 10.5313C7.43384 11.6814 7.89071 12.7843 8.70394 13.5976C9.51717 14.4108 10.6202 14.8677 11.7702 14.8677H17.9651C19.1152 14.8677 20.2182 15.3245 21.0314 16.1378C21.8446 16.951 22.3015 18.054 22.3015 19.2041C22.3015 20.3542 21.8446 21.4571 21.0314 22.2704C20.2182 23.0836 19.1152 23.5405 17.9651 23.5405H7.43384" stroke="var(--stroke-0, #777165)" stroke-width="3" stroke-linecap="square" stroke-linejoin="round"/>
</g>
<defs>
<clipPath id="clip0_0_4">
<rect width="29.7353" height="29.7353" fill="white"/>
</clipPath>
</defs>
</svg>
