<svg preserveAspectRatio="none" width="100%" height="100%" overflow="visible" style="display: block;" viewBox="0 0 74 74" fill="none" xmlns="http://www.w3.org/2000/svg">
<g id="Group 47277">
<path id="Ellipse 468" d="M37 0C46.813 -4.2894e-07 56.2241 3.8982 63.163 10.837C70.1018 17.7759 74 27.187 74 37C74 46.813 70.1018 56.2241 63.163 63.1629C56.2241 70.1018 46.813 74 37 74L37 73.3812C46.6489 73.3812 55.9026 69.5482 62.7254 62.7254C69.5482 55.9026 73.3812 46.6489 73.3812 37C73.3812 27.3511 69.5482 18.0974 62.7254 11.2746C55.9026 4.45178 46.6489 0.618774 37 0.618774L37 0Z" fill="var(--fill-0, #474747)"/>
<g id="chevron-down">
<path id="Vector" d="M31 34L37 40L43 34" stroke="var(--stroke-0, #474747)" stroke-width="2" stroke-linecap="round" stroke-linejoin="round"/>
</g>
</g>
</svg>
